{
    "asset" : {
        "generator" : "Khronos glTF Blender I/O v1.8.19",
        "version" : "2.0"
    },
    "scene" : 0,
    "scenes" : [
        {
            "name" : "Scene",
            "nodes" : [
                0
            ]
        }
    ],
    "nodes" : [
        {
            "mesh" : 0,
            "name" : "IPhoneBase",
            "rotation" : [
                0,
                0,
                0,
                -1
            ],
            "translation" : [
                -0.5465255975723267,
                0.30148741602897644,
                0.2586420476436615
            ]
        }
    ],
    "materials" : [
        {
            "doubleSided" : true,
            "name" : "Base Color",
            "pbrMetallicRoughness" : {
                "baseColorFactor" : [
                    0.09085214138031006,
                    0.09085214138031006,
                    0.09085214138031006,
                    1
                ],
                "roughnessFactor" : 0.4439393877983093
            }
        },
        {
            "doubleSided" : true,
            "name" : "Black Line",
            "pbrMetallicRoughness" : {
                "baseColorFactor" : [
                    0.012981637381017208,
                    0.012981637381017208,
                    0.012981637381017208,
                    1
                ],
                "roughnessFactor" : 0.5231404900550842
            }
        },
        {
            "doubleSided" : true,
            "name" : "Lines",
            "pbrMetallicRoughness" : {
                "baseColorFactor" : [
                    1,
                    0.9735570549964905,
                    0.9619601964950562,
                    1
                ],
                "metallicFactor" : 0.8016529083251953,
                "roughnessFactor" : 0.44876033067703247
            }
        },
        {
            "alphaMode" : "BLEND",
            "doubleSided" : true,
            "name" : "GlassBlack",
            "pbrMetallicRoughness" : {
                "baseColorFactor" : [
                    0.13760198652744293,
                    0.13760198652744293,
                    0.13760198652744293,
                    0.43939393758773804
                ],
                "roughnessFactor" : 0.3181818127632141
            }
        },
        {
            "doubleSided" : true,
            "name" : "Screen",
            "pbrMetallicRoughness" : {
                "baseColorTexture" : {
                    "index" : 0
                },
                "metallicFactor" : 0,
                "roughnessFactor" : 0.09338845312595367
            }
        },
        {
            "alphaMode" : "BLEND",
            "doubleSided" : true,
            "name" : "Glass",
            "pbrMetallicRoughness" : {
                "baseColorFactor" : [
                    1,
                    1,
                    1,
                    0.12878809869289398
                ],
                "metallicFactor" : 0.7121212482452393,
                "roughnessFactor" : 0.15909090638160706
            }
        },
        {
            "doubleSided" : true,
            "name" : "LogoMat",
            "pbrMetallicRoughness" : {
                "baseColorFactor" : [
                    0.800000011920929,
                    0.800000011920929,
                    0.800000011920929,
                    1
                ],
                "roughnessFactor" : 0.36570245027542114
            }
        },
        {
            "doubleSided" : true,
            "name" : "CameraBlack",
            "pbrMetallicRoughness" : {
                "baseColorFactor" : [
                    0.004255170933902264,
                    0.004255170933902264,
                    0.004255170933902264,
                    1
                ],
                "metallicFactor" : 0.9545454978942871,
                "roughnessFactor" : 0.5
            }
        },
        {
            "alphaMode" : "BLEND",
            "doubleSided" : true,
            "name" : "CameraGrey",
            "pbrMetallicRoughness" : {
                "baseColorFactor" : [
                    0.3901563286781311,
                    0.3901563286781311,
                    0.3901563286781311,
                    0.2727273106575012
                ],
                "roughnessFactor" : 0.6818181872367859
            }
        },
        {
            "alphaMode" : "BLEND",
            "doubleSided" : true,
            "name" : "GlassCamera",
            "pbrMetallicRoughness" : {
                "baseColorFactor" : [
                    0.05042409896850586,
                    0.08084207028150558,
                    0.8000000715255737,
                    0.42424243688583374
                ],
                "roughnessFactor" : 0.29269975423812866
            }
        },
        {
            "alphaMode" : "BLEND",
            "doubleSided" : true,
            "name" : "Glass2",
            "pbrMetallicRoughness" : {
                "baseColorFactor" : [
                    0.7106044292449951,
                    0.7106044292449951,
                    0.7106044292449951,
                    0.3863636255264282
                ],
                "roughnessFactor" : 0.25
            }
        }
    ],
    "meshes" : [
        {
            "name" : "Cube.001",
            "primitives" : [
                {
                    "attributes" : {
                        "POSITION" : 0,
                        "NORMAL" : 1,
                        "TEXCOORD_0" : 2
                    },
                    "indices" : 3,
                    "material" : 0
                },
                {
                    "attributes" : {
                        "POSITION" : 4,
                        "NORMAL" : 5,
                        "TEXCOORD_0" : 6
                    },
                    "indices" : 7,
                    "material" : 1
                },
                {
                    "attributes" : {
                        "POSITION" : 8,
                        "NORMAL" : 9,
                        "TEXCOORD_0" : 10
                    },
                    "indices" : 11,
                    "material" : 2
                },
                {
                    "attributes" : {
                        "POSITION" : 12,
                        "NORMAL" : 13,
                        "TEXCOORD_0" : 14
                    },
                    "indices" : 15,
                    "material" : 3
                },
                {
                    "attributes" : {
                        "POSITION" : 16,
                        "NORMAL" : 17,
                        "TEXCOORD_0" : 18
                    },
                    "indices" : 19,
                    "material" : 4
                },
                {
                    "attributes" : {
                        "POSITION" : 20,
                        "NORMAL" : 21,
                        "TEXCOORD_0" : 22
                    },
                    "indices" : 23,
                    "material" : 5
                },
                {
                    "attributes" : {
                        "POSITION" : 24,
                        "NORMAL" : 25,
                        "TEXCOORD_0" : 26
                    },
                    "indices" : 27,
                    "material" : 6
                },
                {
                    "attributes" : {
                        "POSITION" : 28,
                        "NORMAL" : 29,
                        "TEXCOORD_0" : 30
                    },
                    "indices" : 31,
                    "material" : 7
                },
                {
                    "attributes" : {
                        "POSITION" : 32,
                        "NORMAL" : 33,
                        "TEXCOORD_0" : 34
                    },
                    "indices" : 35,
                    "material" : 8
                },
                {
                    "attributes" : {
                        "POSITION" : 36,
                        "NORMAL" : 37,
                        "TEXCOORD_0" : 38
                    },
                    "indices" : 39,
                    "material" : 9
                },
                {
                    "attributes" : {
                        "POSITION" : 40,
                        "NORMAL" : 41,
                        "TEXCOORD_0" : 42
                    },
                    "indices" : 43,
                    "material" : 10
                }
            ]
        }
    ],
    "textures" : [
        {
            "sampler" : 0,
            "source" : 0
        }
    ],
    "images" : [
        {
            "mimeType" : "image/png",
            "name" : "iPhone-14-Wallpaper2",
            "uri" : "Textures/iPhone-14-Wallpaper2.png"
        }
    ],
    "accessors" : [
        {
            "bufferView" : 0,
            "componentType" : 5126,
            "count" : 6228,
            "max" : [
                0.42125609517097473,
                0.8147320747375488,
                0.04826733469963074
            ],
            "min" : [
                -0.46151435375213623,
                -0.987549901008606,
                -0.07567991316318512
            ],
            "type" : "VEC3"
        },
        {
            "bufferView" : 1,
            "componentType" : 5126,
            "count" : 6228,
            "type" : "VEC3"
        },
        {
            "bufferView" : 2,
            "componentType" : 5126,
            "count" : 6228,
            "type" : "VEC2"
        },
        {
            "bufferView" : 3,
            "componentType" : 5123,
            "count" : 25038,
            "type" : "SCALAR"
        },
        {
            "bufferView" : 4,
            "componentType" : 5126,
            "count" : 720,
            "max" : [
                0.4069385826587677,
                0.8109972476959229,
                0.05200204253196716
            ],
            "min" : [
                -0.4497022032737732,
                -0.9838151931762695,
                -0.004590928554534912
            ],
            "type" : "VEC3"
        },
        {
            "bufferView" : 5,
            "componentType" : 5126,
            "count" : 720,
            "type" : "VEC3"
        },
        {
            "bufferView" : 6,
            "componentType" : 5126,
            "count" : 720,
            "type" : "VEC2"
        },
        {
            "bufferView" : 7,
            "componentType" : 5123,
            "count" : 2418,
            "type" : "SCALAR"
        },
        {
            "bufferView" : 8,
            "componentType" : 5126,
            "count" : 132,
            "max" : [
                0.4106731712818146,
                0.8147320747375488,
                0.04826733469963074
            ],
            "min" : [
                -0.45343679189682007,
                -0.987549901008606,
                -0.0335778146982193
            ],
            "type" : "VEC3"
        },
        {
            "bufferView" : 9,
            "componentType" : 5126,
            "count" : 132,
            "type" : "VEC3"
        },
        {
            "bufferView" : 10,
            "componentType" : 5126,
            "count" : 132,
            "type" : "VEC2"
        },
        {
            "bufferView" : 11,
            "componentType" : 5123,
            "count" : 360,
            "type" : "SCALAR"
        },
        {
            "bufferView" : 12,
            "componentType" : 5126,
            "count" : 241,
            "max" : [
                0.09110498428344727,
                0.7520049810409546,
                0.052001953125
            ],
            "min" : [
                -0.1222841739654541,
                0.3622744381427765,
                -0.06104937195777893
            ],
            "type" : "VEC3"
        },
        {
            "bufferView" : 13,
            "componentType" : 5126,
            "count" : 241,
            "type" : "VEC3"
        },
        {
            "bufferView" : 14,
            "componentType" : 5126,
            "count" : 241,
            "type" : "VEC2"
        },
        {
            "bufferView" : 15,
            "componentType" : 5123,
            "count" : 678,
            "type" : "SCALAR"
        },
        {
            "bufferView" : 16,
            "componentType" : 5126,
            "count" : 64,
            "max" : [
                0.3755873739719391,
                0.7796463966369629,
                0.05200204253196716
            ],
            "min" : [
                -0.4183509945869446,
                -0.9524641036987305,
                0.05200186371803284
            ],
            "type" : "VEC3"
        },
        {
            "bufferView" : 17,
            "componentType" : 5126,
            "count" : 64,
            "type" : "VEC3"
        },
        {
            "bufferView" : 18,
            "componentType" : 5126,
            "count" : 64,
            "type" : "VEC2"
        },
        {
            "bufferView" : 19,
            "componentType" : 5123,
            "count" : 192,
            "type" : "SCALAR"
        },
        {
            "bufferView" : 20,
            "componentType" : 5126,
            "count" : 133,
            "max" : [
                0.32436278462409973,
                0.7430382966995239,
                0.052001953125
            ],
            "min" : [
                -0.009745359420776367,
                0.3705262839794159,
                -0.07567991316318512
            ],
            "type" : "VEC3"
        },
        {
            "bufferView" : 21,
            "componentType" : 5126,
            "count" : 133,
            "type" : "VEC3"
        },
        {
            "bufferView" : 22,
            "componentType" : 5126,
            "count" : 133,
            "type" : "VEC2"
        },
        {
            "bufferView" : 23,
            "componentType" : 5123,
            "count" : 384,
            "type" : "SCALAR"
        },
        {
            "bufferView" : 24,
            "componentType" : 5126,
            "count" : 264,
            "max" : [
                0.07480800151824951,
                0.04663318395614624,
                -0.033591389656066895
            ],
            "min" : [
                -0.11890017986297607,
                -0.19323217868804932,
                -0.033722102642059326
            ],
            "type" : "VEC3"
        },
        {
            "bufferView" : 25,
            "componentType" : 5126,
            "count" : 264,
            "type" : "VEC3"
        },
        {
            "bufferView" : 26,
            "componentType" : 5126,
            "count" : 264,
            "type" : "VEC2"
        },
        {
            "bufferView" : 27,
            "componentType" : 5123,
            "count" : 780,
            "type" : "SCALAR"
        },
        {
            "bufferView" : 28,
            "componentType" : 5126,
            "count" : 192,
            "max" : [
                0.33198586106300354,
                0.7303495407104492,
                -0.06680533289909363
            ],
            "min" : [
                -0.019751369953155518,
                0.361476331949234,
                -0.07333572208881378
            ],
            "type" : "VEC3"
        },
        {
            "bufferView" : 29,
            "componentType" : 5126,
            "count" : 192,
            "type" : "VEC3"
        },
        {
            "bufferView" : 30,
            "componentType" : 5126,
            "count" : 192,
            "type" : "VEC2"
        },
        {
            "bufferView" : 31,
            "componentType" : 5123,
            "count" : 576,
            "type" : "SCALAR"
        },
        {
            "bufferView" : 32,
            "componentType" : 5126,
            "count" : 192,
            "max" : [
                0.2909206449985504,
                0.6788971424102783,
                -0.06458970904350281
            ],
            "min" : [
                0.01735854148864746,
                0.40254148840904236,
                -0.06680537760257721
            ],
            "type" : "VEC3"
        },
        {
            "bufferView" : 33,
            "componentType" : 5126,
            "count" : 192,
            "type" : "VEC3"
        },
        {
            "bufferView" : 34,
            "componentType" : 5126,
            "count" : 192,
            "type" : "VEC2"
        },
        {
            "bufferView" : 35,
            "componentType" : 5123,
            "count" : 576,
            "type" : "SCALAR"
        },
        {
            "bufferView" : 36,
            "componentType" : 5126,
            "count" : 920,
            "max" : [
                0.2817364037036896,
                0.7443115711212158,
                0.05179959535598755
            ],
            "min" : [
                0.02515721321105957,
                0.4122835695743561,
                -0.07529601454734802
            ],
            "type" : "VEC3"
        },
        {
            "bufferView" : 37,
            "componentType" : 5126,
            "count" : 920,
            "type" : "VEC3"
        },
        {
            "bufferView" : 38,
            "componentType" : 5126,
            "count" : 920,
            "type" : "VEC2"
        },
        {
            "bufferView" : 39,
            "componentType" : 5123,
            "count" : 4224,
            "type" : "SCALAR"
        },
        {
            "bufferView" : 40,
            "componentType" : 5126,
            "count" : 104,
            "max" : [
                0.09110498428344727,
                0.7346712350845337,
                -0.06104937195777893
            ],
            "min" : [
                0.01963222026824951,
                0.6631985902786255,
                -0.06104937195777893
            ],
            "type" : "VEC3"
        },
        {
            "bufferView" : 41,
            "componentType" : 5126,
            "count" : 104,
            "type" : "VEC3"
        },
        {
            "bufferView" : 42,
            "componentType" : 5126,
            "count" : 104,
            "type" : "VEC2"
        },
        {
            "bufferView" : 43,
            "componentType" : 5123,
            "count" : 288,
            "type" : "SCALAR"
        }
    ],
    "bufferViews" : [
        {
            "buffer" : 0,
            "byteLength" : 74736,
            "byteOffset" : 0
        },
        {
            "buffer" : 0,
            "byteLength" : 74736,
            "byteOffset" : 74736
        },
        {
            "buffer" : 0,
            "byteLength" : 49824,
            "byteOffset" : 149472
        },
        {
            "buffer" : 0,
            "byteLength" : 50076,
            "byteOffset" : 199296
        },
        {
            "buffer" : 0,
            "byteLength" : 8640,
            "byteOffset" : 249372
        },
        {
            "buffer" : 0,
            "byteLength" : 8640,
            "byteOffset" : 258012
        },
        {
            "buffer" : 0,
            "byteLength" : 5760,
            "byteOffset" : 266652
        },
        {
            "buffer" : 0,
            "byteLength" : 4836,
            "byteOffset" : 272412
        },
        {
            "buffer" : 0,
            "byteLength" : 1584,
            "byteOffset" : 277248
        },
        {
            "buffer" : 0,
            "byteLength" : 1584,
            "byteOffset" : 278832
        },
        {
            "buffer" : 0,
            "byteLength" : 1056,
            "byteOffset" : 280416
        },
        {
            "buffer" : 0,
            "byteLength" : 720,
            "byteOffset" : 281472
        },
        {
            "buffer" : 0,
            "byteLength" : 2892,
            "byteOffset" : 282192
        },
        {
            "buffer" : 0,
            "byteLength" : 2892,
            "byteOffset" : 285084
        },
        {
            "buffer" : 0,
            "byteLength" : 1928,
            "byteOffset" : 287976
        },
        {
            "buffer" : 0,
            "byteLength" : 1356,
            "byteOffset" : 289904
        },
        {
            "buffer" : 0,
            "byteLength" : 768,
            "byteOffset" : 291260
        },
        {
            "buffer" : 0,
            "byteLength" : 768,
            "byteOffset" : 292028
        },
        {
            "buffer" : 0,
            "byteLength" : 512,
            "byteOffset" : 292796
        },
        {
            "buffer" : 0,
            "byteLength" : 384,
            "byteOffset" : 293308
        },
        {
            "buffer" : 0,
            "byteLength" : 1596,
            "byteOffset" : 293692
        },
        {
            "buffer" : 0,
            "byteLength" : 1596,
            "byteOffset" : 295288
        },
        {
            "buffer" : 0,
            "byteLength" : 1064,
            "byteOffset" : 296884
        },
        {
            "buffer" : 0,
            "byteLength" : 768,
            "byteOffset" : 297948
        },
        {
            "buffer" : 0,
            "byteLength" : 3168,
            "byteOffset" : 298716
        },
        {
            "buffer" : 0,
            "byteLength" : 3168,
            "byteOffset" : 301884
        },
        {
            "buffer" : 0,
            "byteLength" : 2112,
            "byteOffset" : 305052
        },
        {
            "buffer" : 0,
            "byteLength" : 1560,
            "byteOffset" : 307164
        },
        {
            "buffer" : 0,
            "byteLength" : 2304,
            "byteOffset" : 308724
        },
        {
            "buffer" : 0,
            "byteLength" : 2304,
            "byteOffset" : 311028
        },
        {
            "buffer" : 0,
            "byteLength" : 1536,
            "byteOffset" : 313332
        },
        {
            "buffer" : 0,
            "byteLength" : 1152,
            "byteOffset" : 314868
        },
        {
            "buffer" : 0,
            "byteLength" : 2304,
            "byteOffset" : 316020
        },
        {
            "buffer" : 0,
            "byteLength" : 2304,
            "byteOffset" : 318324
        },
        {
            "buffer" : 0,
            "byteLength" : 1536,
            "byteOffset" : 320628
        },
        {
            "buffer" : 0,
            "byteLength" : 1152,
            "byteOffset" : 322164
        },
        {
            "buffer" : 0,
            "byteLength" : 11040,
            "byteOffset" : 323316
        },
        {
            "buffer" : 0,
            "byteLength" : 11040,
            "byteOffset" : 334356
        },
        {
            "buffer" : 0,
            "byteLength" : 7360,
            "byteOffset" : 345396
        },
        {
            "buffer" : 0,
            "byteLength" : 8448,
            "byteOffset" : 352756
        },
        {
            "buffer" : 0,
            "byteLength" : 1248,
            "byteOffset" : 361204
        },
        {
            "buffer" : 0,
            "byteLength" : 1248,
            "byteOffset" : 362452
        },
        {
            "buffer" : 0,
            "byteLength" : 832,
            "byteOffset" : 363700
        },
        {
            "buffer" : 0,
            "byteLength" : 576,
            "byteOffset" : 364532
        }
    ],
    "samplers" : [
        {
            "magFilter" : 9729,
            "minFilter" : 9987
        }
    ],
    "buffers" : [
        {
            "byteLength" : 365108,
            "uri" : "Iphone14Pro.bin"
        }
    ]
}
