{
    "asset" : {
        "generator" : "Khronos glTF Blender I/O v1.8.19",
        "version" : "2.0"
    },
    "scene" : 0,
    "scenes" : [
        {
            "name" : "Scene",
            "nodes" : [
                0,
                1,
                2,
                3,
                4,
                5,
                6
            ]
        }
    ],
    "nodes" : [
        {
            "mesh" : 0,
            "name" : "frame"
        },
        {
            "mesh" : 1,
            "name" : "power_port",
            "scale" : [
                0.21822631359100342,
                0.21822631359100342,
                0.21822631359100342
            ],
            "translation" : [
                1.4067753553390503,
                0.11721262335777283,
                1.0456478595733643
            ]
        },
        {
            "mesh" : 2,
            "name" : "power_switch",
            "scale" : [
                0.15390577912330627,
                0.15390577912330627,
                0.15390577912330627
            ],
            "translation" : [
                1.258409023284912,
                0.24700503051280975,
                0.9888015389442444
            ]
        },
        {
            "mesh" : 3,
            "name" : "fan",
            "scale" : [
                0.35854145884513855,
                0.35854145884513855,
                0.35854145884513855
            ],
            "translation" : [
                0.34411051869392395,
                0.31187140941619873,
                -0.44802922010421753
            ]
        },
        {
            "mesh" : 4,
            "name" : "vent_cover",
            "scale" : [
                0.5050661563873291,
                0.5050661563873291,
                0.5050661563873291
            ]
        },
        {
            "mesh" : 5,
            "name" : "modular_ports",
            "scale" : [
                0.24751482903957367,
                0.24751482903957367,
                0.24751482903957367
            ],
            "translation" : [
                -0.6171773672103882,
                0,
                -1.9926655292510986
            ]
        },
        {
            "mesh" : 6,
            "name" : "Cylinder",
            "rotation" : [
                0.7071068286895752,
                0,
                0,
                0.7071068286895752
            ],
            "scale" : [
                0.031660836189985275,
                0.031660836189985275,
                0.031660836189985275
            ],
            "translation" : [
                1.7455499172210693,
                0.10820899158716202,
                0.7429299354553223
            ]
        }
    ],
    "materials" : [
        {
            "doubleSided" : true,
            "name" : "Material",
            "pbrMetallicRoughness" : {
                "baseColorFactor" : [
                    0.057805418968200684,
                    0.057805437594652176,
                    0.05780543386936188,
                    1
                ],
                "metallicFactor" : 0.800000011920929,
                "roughnessFactor" : 0.3499999940395355
            }
        },
        {
            "doubleSided" : true,
            "name" : "Material.006",
            "pbrMetallicRoughness" : {
                "baseColorTexture" : {
                    "index" : 0
                },
                "metallicFactor" : 0,
                "roughnessFactor" : 0.800000011920929
            }
        },
        {
            "doubleSided" : true,
            "name" : "Material.001",
            "pbrMetallicRoughness" : {
                "baseColorFactor" : [
                    0.11953847855329514,
                    0.11953846365213394,
                    0.11953847855329514,
                    1
                ],
                "metallicFactor" : 0,
                "roughnessFactor" : 0.5
            }
        },
        {
            "doubleSided" : true,
            "name" : "Material.002",
            "pbrMetallicRoughness" : {
                "baseColorFactor" : [
                    0.11953847855329514,
                    0.11953846365213394,
                    0.11953847855329514,
                    1
                ],
                "metallicFactor" : 0.800000011920929,
                "roughnessFactor" : 0.4000000059604645
            }
        },
        {
            "doubleSided" : true,
            "name" : "Material.004",
            "pbrMetallicRoughness" : {
                "baseColorFactor" : [
                    0.11953847855329514,
                    0.11953846365213394,
                    0.11953847855329514,
                    1
                ],
                "metallicFactor" : 0,
                "roughnessFactor" : 0.5
            }
        },
        {
            "doubleSided" : true,
            "name" : "Material.003",
            "pbrMetallicRoughness" : {
                "baseColorFactor" : [
                    0,
                    0,
                    0,
                    1
                ],
                "metallicFactor" : 0,
                "roughnessFactor" : 0.5
            }
        },
        {
            "doubleSided" : true,
            "name" : "Material.005",
            "pbrMetallicRoughness" : {
                "baseColorFactor" : [
                    0.11953847855329514,
                    0.11953846365213394,
                    0.11953847855329514,
                    1
                ],
                "metallicFactor" : 0,
                "roughnessFactor" : 0.5
            }
        }
    ],
    "meshes" : [
        {
            "name" : "Cube",
            "primitives" : [
                {
                    "attributes" : {
                        "POSITION" : 0,
                        "NORMAL" : 1,
                        "TEXCOORD_0" : 2
                    },
                    "indices" : 3,
                    "material" : 0
                },
                {
                    "attributes" : {
                        "POSITION" : 4,
                        "NORMAL" : 5,
                        "TEXCOORD_0" : 6
                    },
                    "indices" : 7,
                    "material" : 1
                }
            ]
        },
        {
            "name" : "Cube.001",
            "primitives" : [
                {
                    "attributes" : {
                        "POSITION" : 8,
                        "NORMAL" : 9,
                        "TEXCOORD_0" : 10
                    },
                    "indices" : 11,
                    "material" : 2
                }
            ]
        },
        {
            "name" : "Cube.003",
            "primitives" : [
                {
                    "attributes" : {
                        "POSITION" : 12,
                        "NORMAL" : 13,
                        "TEXCOORD_0" : 14
                    },
                    "indices" : 15,
                    "material" : 3
                }
            ]
        },
        {
            "name" : "Cylinder",
            "primitives" : [
                {
                    "attributes" : {
                        "POSITION" : 16,
                        "NORMAL" : 17,
                        "TEXCOORD_0" : 18
                    },
                    "indices" : 19,
                    "material" : 4
                }
            ]
        },
        {
            "name" : "Cube.002",
            "primitives" : [
                {
                    "attributes" : {
                        "POSITION" : 20,
                        "NORMAL" : 21,
                        "TEXCOORD_0" : 22
                    },
                    "indices" : 23,
                    "material" : 5
                }
            ]
        },
        {
            "name" : "Cube.004",
            "primitives" : [
                {
                    "attributes" : {
                        "POSITION" : 24,
                        "NORMAL" : 25,
                        "TEXCOORD_0" : 26
                    },
                    "indices" : 27,
                    "material" : 6
                }
            ]
        },
        {
            "name" : "Cylinder.001",
            "primitives" : [
                {
                    "attributes" : {
                        "POSITION" : 28,
                        "NORMAL" : 29,
                        "TEXCOORD_0" : 30
                    },
                    "indices" : 31
                }
            ]
        }
    ],
    "textures" : [
        {
            "sampler" : 0,
            "source" : 0
        }
    ],
    "images" : [
        {
            "mimeType" : "image/png",
            "name" : "-CP-9020105-EU-Gallery-SF600-05_png",
            "uri" : "Textures/-CP-9020105-EU-Gallery-SF600-05_png.png"
        }
    ],
    "accessors" : [
        {
            "bufferView" : 0,
            "componentType" : 5126,
            "count" : 29852,
            "max" : [
                2.205594539642334,
                0.7868185043334961,
                1.000000238418579
            ],
            "min" : [
                -1,
                -1,
                -1.9319401979446411
            ],
            "type" : "VEC3"
        },
        {
            "bufferView" : 1,
            "componentType" : 5126,
            "count" : 29852,
            "type" : "VEC3"
        },
        {
            "bufferView" : 2,
            "componentType" : 5126,
            "count" : 29852,
            "type" : "VEC2"
        },
        {
            "bufferView" : 3,
            "componentType" : 5123,
            "count" : 62448,
            "type" : "SCALAR"
        },
        {
            "bufferView" : 4,
            "componentType" : 5126,
            "count" : 4,
            "max" : [
                2.205594539642334,
                0.7868183255195618,
                1
            ],
            "min" : [
                2.205594539642334,
                -1,
                -1.9319401979446411
            ],
            "type" : "VEC3"
        },
        {
            "bufferView" : 5,
            "componentType" : 5126,
            "count" : 4,
            "type" : "VEC3"
        },
        {
            "bufferView" : 6,
            "componentType" : 5126,
            "count" : 4,
            "type" : "VEC2"
        },
        {
            "bufferView" : 7,
            "componentType" : 5123,
            "count" : 6,
            "type" : "SCALAR"
        },
        {
            "bufferView" : 8,
            "componentType" : 5126,
            "count" : 88,
            "max" : [
                3.0028157234191895,
                1.5570068359375,
                -0.024700939655303955
            ],
            "min" : [
                0.12856900691986084,
                -0.4429931044578552,
                -2.024700880050659
            ],
            "type" : "VEC3"
        },
        {
            "bufferView" : 9,
            "componentType" : 5126,
            "count" : 88,
            "type" : "VEC3"
        },
        {
            "bufferView" : 10,
            "componentType" : 5126,
            "count" : 88,
            "type" : "VEC2"
        },
        {
            "bufferView" : 11,
            "componentType" : 5123,
            "count" : 180,
            "type" : "SCALAR"
        },
        {
            "bufferView" : 12,
            "componentType" : 5126,
            "count" : 48,
            "max" : [
                1,
                1.247916579246521,
                0.7924947738647461
            ],
            "min" : [
                -0.6853951811790466,
                -1.3998682498931885,
                -1.7166593074798584
            ],
            "type" : "VEC3"
        },
        {
            "bufferView" : 13,
            "componentType" : 5126,
            "count" : 48,
            "type" : "VEC3"
        },
        {
            "bufferView" : 14,
            "componentType" : 5126,
            "count" : 48,
            "type" : "VEC2"
        },
        {
            "bufferView" : 15,
            "componentType" : 5123,
            "count" : 72,
            "type" : "SCALAR"
        },
        {
            "bufferView" : 16,
            "componentType" : 5126,
            "count" : 448,
            "max" : [
                3.5467326641082764,
                1.2327027320861816,
                3.5467326641082764
            ],
            "min" : [
                -3.5467312335968018,
                0.7296766638755798,
                -3.5467312335968018
            ],
            "type" : "VEC3"
        },
        {
            "bufferView" : 17,
            "componentType" : 5126,
            "count" : 448,
            "type" : "VEC3"
        },
        {
            "bufferView" : 18,
            "componentType" : 5126,
            "count" : 448,
            "type" : "VEC2"
        },
        {
            "bufferView" : 19,
            "componentType" : 5123,
            "count" : 756,
            "type" : "SCALAR"
        },
        {
            "bufferView" : 20,
            "componentType" : 5126,
            "count" : 46,
            "max" : [
                4.1716084480285645,
                1.4043736457824707,
                1.8572497367858887
            ],
            "min" : [
                -1.8781249523162842,
                -1.9106383323669434,
                1.6553895473480225
            ],
            "type" : "VEC3"
        },
        {
            "bufferView" : 21,
            "componentType" : 5126,
            "count" : 46,
            "type" : "VEC3"
        },
        {
            "bufferView" : 22,
            "componentType" : 5126,
            "count" : 46,
            "type" : "VEC2"
        },
        {
            "bufferView" : 23,
            "componentType" : 5123,
            "count" : 84,
            "type" : "SCALAR"
        },
        {
            "bufferView" : 24,
            "componentType" : 5126,
            "count" : 4352,
            "max" : [
                8.388384819030762,
                1,
                2.111121654510498
            ],
            "min" : [
                0.02063530683517456,
                -1.1988770961761475,
                0.11112160980701447
            ],
            "type" : "VEC3"
        },
        {
            "bufferView" : 25,
            "componentType" : 5126,
            "count" : 4352,
            "type" : "VEC3"
        },
        {
            "bufferView" : 26,
            "componentType" : 5126,
            "count" : 4352,
            "type" : "VEC2"
        },
        {
            "bufferView" : 27,
            "componentType" : 5123,
            "count" : 8964,
            "type" : "SCALAR"
        },
        {
            "bufferView" : 28,
            "componentType" : 5126,
            "count" : 1440,
            "max" : [
                6.442405700683594,
                8.448834419250488,
                1
            ],
            "min" : [
                -6.634495258331299,
                -1.000000238418579,
                -7.1820502281188965
            ],
            "type" : "VEC3"
        },
        {
            "bufferView" : 29,
            "componentType" : 5126,
            "count" : 1440,
            "type" : "VEC3"
        },
        {
            "bufferView" : 30,
            "componentType" : 5126,
            "count" : 1440,
            "type" : "VEC2"
        },
        {
            "bufferView" : 31,
            "componentType" : 5123,
            "count" : 2538,
            "type" : "SCALAR"
        }
    ],
    "bufferViews" : [
        {
            "buffer" : 0,
            "byteLength" : 358224,
            "byteOffset" : 0
        },
        {
            "buffer" : 0,
            "byteLength" : 358224,
            "byteOffset" : 358224
        },
        {
            "buffer" : 0,
            "byteLength" : 238816,
            "byteOffset" : 716448
        },
        {
            "buffer" : 0,
            "byteLength" : 124896,
            "byteOffset" : 955264
        },
        {
            "buffer" : 0,
            "byteLength" : 48,
            "byteOffset" : 1080160
        },
        {
            "buffer" : 0,
            "byteLength" : 48,
            "byteOffset" : 1080208
        },
        {
            "buffer" : 0,
            "byteLength" : 32,
            "byteOffset" : 1080256
        },
        {
            "buffer" : 0,
            "byteLength" : 12,
            "byteOffset" : 1080288
        },
        {
            "buffer" : 0,
            "byteLength" : 1056,
            "byteOffset" : 1080300
        },
        {
            "buffer" : 0,
            "byteLength" : 1056,
            "byteOffset" : 1081356
        },
        {
            "buffer" : 0,
            "byteLength" : 704,
            "byteOffset" : 1082412
        },
        {
            "buffer" : 0,
            "byteLength" : 360,
            "byteOffset" : 1083116
        },
        {
            "buffer" : 0,
            "byteLength" : 576,
            "byteOffset" : 1083476
        },
        {
            "buffer" : 0,
            "byteLength" : 576,
            "byteOffset" : 1084052
        },
        {
            "buffer" : 0,
            "byteLength" : 384,
            "byteOffset" : 1084628
        },
        {
            "buffer" : 0,
            "byteLength" : 144,
            "byteOffset" : 1085012
        },
        {
            "buffer" : 0,
            "byteLength" : 5376,
            "byteOffset" : 1085156
        },
        {
            "buffer" : 0,
            "byteLength" : 5376,
            "byteOffset" : 1090532
        },
        {
            "buffer" : 0,
            "byteLength" : 3584,
            "byteOffset" : 1095908
        },
        {
            "buffer" : 0,
            "byteLength" : 1512,
            "byteOffset" : 1099492
        },
        {
            "buffer" : 0,
            "byteLength" : 552,
            "byteOffset" : 1101004
        },
        {
            "buffer" : 0,
            "byteLength" : 552,
            "byteOffset" : 1101556
        },
        {
            "buffer" : 0,
            "byteLength" : 368,
            "byteOffset" : 1102108
        },
        {
            "buffer" : 0,
            "byteLength" : 168,
            "byteOffset" : 1102476
        },
        {
            "buffer" : 0,
            "byteLength" : 52224,
            "byteOffset" : 1102644
        },
        {
            "buffer" : 0,
            "byteLength" : 52224,
            "byteOffset" : 1154868
        },
        {
            "buffer" : 0,
            "byteLength" : 34816,
            "byteOffset" : 1207092
        },
        {
            "buffer" : 0,
            "byteLength" : 17928,
            "byteOffset" : 1241908
        },
        {
            "buffer" : 0,
            "byteLength" : 17280,
            "byteOffset" : 1259836
        },
        {
            "buffer" : 0,
            "byteLength" : 17280,
            "byteOffset" : 1277116
        },
        {
            "buffer" : 0,
            "byteLength" : 11520,
            "byteOffset" : 1294396
        },
        {
            "buffer" : 0,
            "byteLength" : 5076,
            "byteOffset" : 1305916
        }
    ],
    "samplers" : [
        {
            "magFilter" : 9729,
            "minFilter" : 9987,
            "wrapS" : 33071,
            "wrapT" : 33071
        }
    ],
    "buffers" : [
        {
            "byteLength" : 1310992,
            "uri" : "600wattpsu.bin"
        }
    ]
}
