{
    "asset" : {
        "generator" : "Khronos glTF Blender I/O v1.8.19",
        "version" : "2.0"
    },
    "scene" : 0,
    "scenes" : [
        {
            "name" : "Scene",
            "nodes" : [
                4
            ]
        }
    ],
    "nodes" : [
        {
            "mesh" : 0,
            "name" : "Cube.002_Baker 1 Preview_0",
            "rotation" : [
                -0.7071067094802856,
                0,
                0,
                0.7071067690849304
            ]
        },
        {
            "children" : [
                0
            ],
            "name" : "Cube.002",
            "scale" : [
                100,
                99.99984741210938,
                100
            ]
        },
        {
            "mesh" : 1,
            "name" : "Plane.004_Baker 1 Preview_0",
            "rotation" : [
                -0.7071067690849304,
                0,
                0,
                0.7071067690849304
            ]
        },
        {
            "children" : [
                2
            ],
            "name" : "Plane.004",
            "scale" : [
                100,
                99.99984741210938,
                100
            ]
        },
        {
            "children" : [
                1,
                3
            ],
            "name" : "AMD_Ryzen_Threadripper_Ex_low",
            "scale" : [
                1.000007152557373,
                1.0000057220458984,
                1.0000193119049072
            ]
        }
    ],
    "materials" : [
        {
            "doubleSided" : true,
            "name" : "Baker_1_Preview_0",
            "normalTexture" : {
                "index" : 0
            },
            "pbrMetallicRoughness" : {
                "baseColorTexture" : {
                    "index" : 1
                },
                "metallicRoughnessTexture" : {
                    "index" : 2
                }
            }
        },
        {
            "doubleSided" : true,
            "name" : "Baker_1_Preview",
            "normalTexture" : {
                "index" : 3
            },
            "pbrMetallicRoughness" : {
                "baseColorTexture" : {
                    "index" : 4
                },
                "metallicRoughnessTexture" : {
                    "index" : 5
                }
            }
        }
    ],
    "meshes" : [
        {
            "name" : "Cube.002_Baker 1 Preview_0",
            "primitives" : [
                {
                    "attributes" : {
                        "POSITION" : 0,
                        "NORMAL" : 1,
                        "TEXCOORD_0" : 2,
                        "TEXCOORD_1" : 3,
                        "TEXCOORD_2" : 4,
                        "TEXCOORD_3" : 5,
                        "TEXCOORD_4" : 6,
                        "TEXCOORD_5" : 7,
                        "TEXCOORD_6" : 8,
                        "TEXCOORD_7" : 9
                    },
                    "indices" : 10,
                    "material" : 0
                }
            ]
        },
        {
            "name" : "Plane.004_Baker 1 Preview_0",
            "primitives" : [
                {
                    "attributes" : {
                        "POSITION" : 11,
                        "NORMAL" : 12,
                        "TEXCOORD_0" : 13,
                        "TEXCOORD_1" : 14,
                        "TEXCOORD_2" : 15,
                        "TEXCOORD_3" : 16,
                        "TEXCOORD_4" : 17,
                        "TEXCOORD_5" : 18,
                        "TEXCOORD_6" : 19,
                        "TEXCOORD_7" : 20
                    },
                    "indices" : 21,
                    "material" : 1
                }
            ]
        }
    ],
    "textures" : [
        {
            "sampler" : 0,
            "source" : 0
        },
        {
            "sampler" : 0,
            "source" : 1
        },
        {
            "sampler" : 0,
            "source" : 2
        },
        {
            "sampler" : 0,
            "source" : 0
        },
        {
            "sampler" : 0,
            "source" : 1
        },
        {
            "sampler" : 0,
            "source" : 3
        }
    ],
    "images" : [
        {
            "mimeType" : "image/png",
            "name" : "Baker_1_Preview_normal",
            "uri" : "Textures/Baker_1_Preview_normal.png"
        },
        {
            "mimeType" : "image/png",
            "name" : "Baker_1_Preview_baseColor",
            "uri" : "Textures/Baker_1_Preview_baseColor.png"
        },
        {
            "mimeType" : "image/png",
            "name" : "Baker_1_Preview_0_metallicRoughness",
            "uri" : "Textures/Baker_1_Preview_0_metallicRoughness.png"
        },
        {
            "mimeType" : "image/png",
            "name" : "Baker_1_Preview_metallicRoughness",
            "uri" : "Textures/Baker_1_Preview_metallicRoughness.png"
        }
    ],
    "accessors" : [
        {
            "bufferView" : 0,
            "componentType" : 5126,
            "count" : 263,
            "max" : [
                0.2061547338962555,
                0.2700440585613251,
                0.0184438768774271
            ],
            "min" : [
                -0.2061547338962555,
                -0.2700440585613251,
                0
            ],
            "type" : "VEC3"
        },
        {
            "bufferView" : 1,
            "componentType" : 5126,
            "count" : 263,
            "type" : "VEC3"
        },
        {
            "bufferView" : 2,
            "componentType" : 5126,
            "count" : 263,
            "type" : "VEC2"
        },
        {
            "bufferView" : 3,
            "componentType" : 5126,
            "count" : 263,
            "type" : "VEC2"
        },
        {
            "bufferView" : 4,
            "componentType" : 5126,
            "count" : 263,
            "type" : "VEC2"
        },
        {
            "bufferView" : 5,
            "componentType" : 5126,
            "count" : 263,
            "type" : "VEC2"
        },
        {
            "bufferView" : 6,
            "componentType" : 5126,
            "count" : 263,
            "type" : "VEC2"
        },
        {
            "bufferView" : 7,
            "componentType" : 5126,
            "count" : 263,
            "type" : "VEC2"
        },
        {
            "bufferView" : 8,
            "componentType" : 5126,
            "count" : 263,
            "type" : "VEC2"
        },
        {
            "bufferView" : 9,
            "componentType" : 5126,
            "count" : 263,
            "type" : "VEC2"
        },
        {
            "bufferView" : 10,
            "componentType" : 5123,
            "count" : 468,
            "type" : "SCALAR"
        },
        {
            "bufferView" : 11,
            "componentType" : 5126,
            "count" : 505,
            "max" : [
                0.21827882528305054,
                0.2815367877483368,
                1.3969838619232178e-09
            ],
            "min" : [
                -0.21827882528305054,
                -0.2815367877483368,
                -0.005559155717492104
            ],
            "type" : "VEC3"
        },
        {
            "bufferView" : 12,
            "componentType" : 5126,
            "count" : 505,
            "type" : "VEC3"
        },
        {
            "bufferView" : 13,
            "componentType" : 5126,
            "count" : 505,
            "type" : "VEC2"
        },
        {
            "bufferView" : 14,
            "componentType" : 5126,
            "count" : 505,
            "type" : "VEC2"
        },
        {
            "bufferView" : 15,
            "componentType" : 5126,
            "count" : 505,
            "type" : "VEC2"
        },
        {
            "bufferView" : 16,
            "componentType" : 5126,
            "count" : 505,
            "type" : "VEC2"
        },
        {
            "bufferView" : 17,
            "componentType" : 5126,
            "count" : 505,
            "type" : "VEC2"
        },
        {
            "bufferView" : 18,
            "componentType" : 5126,
            "count" : 505,
            "type" : "VEC2"
        },
        {
            "bufferView" : 19,
            "componentType" : 5126,
            "count" : 505,
            "type" : "VEC2"
        },
        {
            "bufferView" : 20,
            "componentType" : 5126,
            "count" : 505,
            "type" : "VEC2"
        },
        {
            "bufferView" : 21,
            "componentType" : 5123,
            "count" : 540,
            "type" : "SCALAR"
        }
    ],
    "bufferViews" : [
        {
            "buffer" : 0,
            "byteLength" : 3156,
            "byteOffset" : 0
        },
        {
            "buffer" : 0,
            "byteLength" : 3156,
            "byteOffset" : 3156
        },
        {
            "buffer" : 0,
            "byteLength" : 2104,
            "byteOffset" : 6312
        },
        {
            "buffer" : 0,
            "byteLength" : 2104,
            "byteOffset" : 8416
        },
        {
            "buffer" : 0,
            "byteLength" : 2104,
            "byteOffset" : 10520
        },
        {
            "buffer" : 0,
            "byteLength" : 2104,
            "byteOffset" : 12624
        },
        {
            "buffer" : 0,
            "byteLength" : 2104,
            "byteOffset" : 14728
        },
        {
            "buffer" : 0,
            "byteLength" : 2104,
            "byteOffset" : 16832
        },
        {
            "buffer" : 0,
            "byteLength" : 2104,
            "byteOffset" : 18936
        },
        {
            "buffer" : 0,
            "byteLength" : 2104,
            "byteOffset" : 21040
        },
        {
            "buffer" : 0,
            "byteLength" : 936,
            "byteOffset" : 23144
        },
        {
            "buffer" : 0,
            "byteLength" : 6060,
            "byteOffset" : 24080
        },
        {
            "buffer" : 0,
            "byteLength" : 6060,
            "byteOffset" : 30140
        },
        {
            "buffer" : 0,
            "byteLength" : 4040,
            "byteOffset" : 36200
        },
        {
            "buffer" : 0,
            "byteLength" : 4040,
            "byteOffset" : 40240
        },
        {
            "buffer" : 0,
            "byteLength" : 4040,
            "byteOffset" : 44280
        },
        {
            "buffer" : 0,
            "byteLength" : 4040,
            "byteOffset" : 48320
        },
        {
            "buffer" : 0,
            "byteLength" : 4040,
            "byteOffset" : 52360
        },
        {
            "buffer" : 0,
            "byteLength" : 4040,
            "byteOffset" : 56400
        },
        {
            "buffer" : 0,
            "byteLength" : 4040,
            "byteOffset" : 60440
        },
        {
            "buffer" : 0,
            "byteLength" : 4040,
            "byteOffset" : 64480
        },
        {
            "buffer" : 0,
            "byteLength" : 1080,
            "byteOffset" : 68520
        }
    ],
    "samplers" : [
        {
            "magFilter" : 9729,
            "minFilter" : 9987
        }
    ],
    "buffers" : [
        {
            "byteLength" : 69600,
            "uri" : "ryzen.bin"
        }
    ]
}
